<svg width="459" height="35" viewBox="0 0 459 35" fill="none" xmlns="http://www.w3.org/2000/svg">
<path d="M14.626 17.9102L23.3906 28.0908L22.4141 35H15.5049L0.807617 17.9102L20.3145 0.820312H27.2236L26.2471 7.72949L14.626 17.9102ZM397.214 35H390.305L391.281 28.0908L422.385 0.820312H429.294L428.317 7.72949L397.214 35ZM444.499 17.9102L435.759 7.72949L436.735 0.820312H443.645L458.317 17.9102L438.835 35H431.926L432.902 28.0908L444.499 17.9102Z" fill="#F8A74A"/>
<path d="M75.1143 10.5859H50.7002L52.0674 0.820312H86.2471L81.4375 35H47.2578L50.334 13.0273H74.748L75.1143 10.5859ZM73.0391 25.2344L73.3809 22.793H58.7324L58.3906 25.2344H73.0391ZM93.6885 0.820312H103.454L100.012 25.2344H114.66L118.103 0.820312H127.868L123.059 35H88.8789L93.6885 0.820312ZM169.489 0.820312L168.122 10.5859H143.708L143.342 13.0273H167.756L166.389 22.793H141.975L140.266 35H130.5L135.31 0.820312H169.489ZM185.329 10.5859L181.887 35H172.121L176.931 0.820312H211.11L206.301 35H196.535L199.978 10.5859H185.329ZM241.599 10.5859H217.185L218.552 0.820312H252.731L247.922 35H213.742L216.818 13.0273H241.232L241.599 10.5859ZM239.523 25.2344L239.865 22.793H225.217L224.875 25.2344H239.523ZM255.363 35L256.73 25.2344H281.145L281.486 22.793H257.072L260.173 0.820312H294.353L292.985 10.5859H268.571L268.205 13.0273H292.619L289.543 35H255.363ZM324.841 10.5859H300.427L301.794 0.820312H335.974L331.164 35H296.984L300.061 13.0273H324.475L324.841 10.5859ZM322.766 25.2344L323.107 22.793H308.459L308.117 25.2344H322.766ZM339.973 25.2344H366.828L365.461 35H338.605L339.973 25.2344Z" fill="#FAFAFB"/>
</svg>
